<?xml version="1.0" encoding="utf-8"?>
<!-- Generator: Adobe Illustrator 16.0.0, SVG Export Plug-In . SVG Version: 6.00 Build 0)  -->
<!DOCTYPE svg PUBLIC "-//W3C//DTD SVG 1.1//EN" "http://www.w3.org/Graphics/SVG/1.1/DTD/svg11.dtd">
<svg version="1.1" id="Layer_1" xmlns="http://www.w3.org/2000/svg" xmlns:xlink="http://www.w3.org/1999/xlink" x="0px" y="0px"
	 width="602.166px" height="265.832px" viewBox="0 0 602.166 265.832" enable-background="new 0 0 602.166 265.832"
	 xml:space="preserve">
<g id="Layer_2">
	<g>
		<image overflow="visible" width="673" height="337" xlink:href="4F37596A.png"  transform="matrix(1 0 0 1 -35.4167 -35.584)">
		</image>
	</g>
	<path fill="#210606" d="M577.377,115.111c-7.544-5.428-16.697-12.164-27.208-18.688c-5.249-3.412-10.841-7.015-16.741-10.813
		l-18.542-0.869c-51.726,0.012-120.698,0.012-189.665,0.001c-30.271-0.001-60.495-0.007-89.284-0.005
		c1.793-16.971,2.391-30.668,3.395-38.438l-33.818-12.835l-46.96-17.823L120.207,1.087L1.083,46.297
		c4.328,33.521,1.073,177.289,119.11,218.447h0.013c14.546-5.07,27.245-11.701,38.349-19.49
		c20.693-14.514,35.829-33.057,46.966-53.049c1.798-3.23,3.492-6.496,5.089-9.789c36.102-0.012,75.316-0.029,114.606-0.021
		c68.973,0,137.935,0.02,189.675,0.021l18.538-0.855c5.9-3.781,11.499-7.414,16.732-10.799c10.51-6.541,19.667-13.27,27.223-18.721
		c15.075-10.896,23.699-18.457,23.699-18.457S592.462,126.055,577.377,115.111z"/>
	<g>
		<g>
			<g>
				
					<image overflow="visible" enable-background="new    " width="1313" height="302" xlink:href="4F37596E.png"  transform="matrix(0.2772 0 0 0.273 185.2649 92.0601)">
				</image>
			</g>
			<g>
				<path fill="#9E9C93" d="M250.877,156.809c-0.48,0.492-1.205,1.145-2.167,1.959c-2.49,2.041-4.256,3.104-5.298,3.186
					c-2.008,0.08-3.654-0.889-4.938-2.904l-19.75-22.74l1.445-1.213c3.21,1.85,5.66,2.771,7.347,2.771
					c0.723,0,1.565-0.121,2.528-0.363c2.408-0.641,4.375-2.486,5.901-5.538c1.204-2.488,1.886-5.219,2.047-8.189
					c0.402-6.582-1.565-11.199-5.9-13.849c-2.089-1.282-4.256-1.928-6.503-1.928c-1.686,0-3.292,0.321-4.816,0.963
					c-5.059,2.168-7.587,6.063-7.587,11.683l-0.241,31.793c0,3.053,0.682,4.979,2.048,5.779c0.963,0.563,3.089,0.926,6.383,1.082
					v2.652l-25.41-0.121v-2.65c3.21-0.08,5.338-0.439,6.382-1.084c1.445-0.881,2.168-2.77,2.168-5.658l0.241-37.935
					c0-0.726-0.041-1.365-0.121-1.928l0.121-2.168c-0.081-0.563-0.202-1.084-0.36-1.566c-0.162-0.48-0.684-0.521-1.566-0.118
					l-1.325,0.602V107.4c0.563-0.401,1.284-0.803,2.167-1.205c2.248-1.042,3.977-1.484,5.181-1.325
					c2.567,0.321,4.013,1.888,4.334,4.696v0.24c3.131-3.69,7.626-5.539,13.487-5.539c1.605,0,3.331,0.24,5.18,0.723
					c9.313,2.49,13.969,8.391,13.969,17.704c0,8.591-4.094,14.412-12.284,17.46c8.59,9.717,12.965,14.734,13.126,15.055
					c0.723,0.963,1.485,1.125,2.289,0.482l1.325-1.086L250.877,156.809z"/>
				<path fill="#9E9C93" d="M289.173,140.996c-2.408,0.723-5.419,0.523-9.032-0.602c-2.729-1.363-4.657-2.488-5.78-3.373
					l1.084-1.686c3.291,2.166,6.263,3.092,8.912,2.77c2.891-0.318,5.458-2.047,7.707-5.178c2.086-2.891,3.21-5.859,3.372-8.912
					c0.4-6.581-1.565-11.199-5.9-13.85c-2.088-1.281-4.257-1.927-6.503-1.927c-1.688,0-3.293,0.321-4.817,0.964
					c-4.979,2.168-7.508,6.063-7.586,11.684l-0.361,31.79c0,2.971,0.724,4.898,2.167,5.781c0.964,0.563,3.091,0.924,6.383,1.084
					l-0.12,2.65l-25.29-0.121v-2.648c3.21-0.08,5.338-0.441,6.382-1.084c1.446-0.885,2.168-2.771,2.168-5.662l0.241-37.934
					c0-0.643-0.042-1.283-0.121-1.929v-2.166v-0.843c-0.081-1.042-0.684-1.325-1.806-0.843c-0.805,0.321-1.285,0.521-1.445,0.601
					v-1.926c0.642-0.4,1.404-0.802,2.289-1.204c2.246-1.043,3.932-1.483,5.058-1.325c1.204,0.162,2.228,0.685,3.071,1.564
					c0.842,0.886,1.265,1.929,1.265,3.133h0.12v0.242c2.969-3.693,7.467-5.541,13.488-5.541c1.605,0,3.331,0.238,5.179,0.721
					c8.509,2.25,13.126,7.309,13.849,15.175C304.185,131,299.531,137.867,289.173,140.996z"/>
				<path fill="#9E9C93" d="M366.488,137.746v2.648h-1.204c-4.176,0-6.263,1.768-6.263,5.299l-0.121,16.5
					c-1.767-1.688-3.895-2.41-6.382-2.17c-6.262,1.848-10.477,2.934-12.645,3.254c-2.248,0.238-3.693,0.359-4.334,0.359
					c-1.927,0-3.814-0.199-5.66-0.602c-7.065-1.283-12.688-4.656-16.86-10.117c-4.015-5.217-5.98-11.479-5.9-18.785
					c0.08-8.509,2.81-15.696,8.188-21.557c5.379-5.859,12.284-8.75,20.714-8.671c5.859,0,11.278,1.524,16.258,4.576l0.121-0.121
					c0.883,0.644,1.565,1.125,2.047,1.446c1.927,1.364,2.849,3.011,2.77,4.937c-0.082,0.806-0.442,1.769-1.084,2.892
					c-0.883,1.444-2.167,3.012-3.854,4.695l-2.167-0.602l0.964-1.326c1.042-1.363,1.403-2.605,1.084-3.73
					c-1.043-2.407-1.807-3.854-2.289-4.336v-0.121c-3.533-3.531-8.028-5.299-13.488-5.299c-6.423-0.079-11.4,2.729-14.933,8.43
					c-3.052,4.899-4.576,10.76-4.576,17.584c-0.081,7.305,1.524,13.329,4.816,18.063c3.692,5.541,9.033,8.309,16.018,8.309h1.927
					c7.225-1.846,10.838-3.811,10.838-5.898v-7.828c0-3.613-2.209-5.42-6.623-5.42H341.8v-2.648L366.488,137.746z"/>
				<path fill="#9E9C93" d="M435.613,147.861c-2.09,4.816-5.42,8.631-9.996,11.438c-4.577,2.814-9.556,4.217-14.934,4.217
					c-8.188-0.078-14.813-2.969-19.87-8.672c-4.816-5.457-7.226-12.361-7.226-20.711c0-8.431,2.488-15.536,7.468-21.316
					c5.217-6.101,11.961-9.11,20.231-9.032c5.378,0,10.556,1.525,15.535,4.576c0.882,0.563,1.564,1.005,2.047,1.326v0.118
					c1.846,1.366,2.729,3.013,2.649,4.938c0,0.805-0.361,1.727-1.084,2.77c-1.204,1.85-2.449,3.414-3.732,4.696l-2.048-0.603
					l0.964-1.324c0.963-1.282,1.324-2.486,1.084-3.612c-1.045-2.407-1.807-3.894-2.288-4.456c-3.453-3.612-7.749-5.419-12.887-5.419
					c-6.263-0.078-11.078,2.812-14.452,8.672c-2.811,4.815-4.215,10.597-4.215,17.341c-0.08,7.225,1.404,13.208,4.456,17.942
					c3.533,5.623,8.71,8.475,15.535,8.551c4.174,0,8.148-1.303,11.923-3.912c3.772-2.607,6.423-5.881,7.947-9.814L435.613,147.861z"
					/>
				<path fill="#9E9C93" d="M482.938,156.17c-1.284,4.816-3.974,7.188-8.067,7.107c-3.373,0-5.621-1.445-6.744-4.338
					c-2.09,2.17-5.943,3.254-11.563,3.254c-5.461,0-9.917-1.873-13.367-5.617c-3.453-3.744-5.14-8.396-5.059-13.955
					c0-5.557,1.705-10.025,5.119-13.409c3.411-3.384,7.846-5.075,13.307-5.075c5.059,0,8.791,1.487,11.2,4.456
					c0.241-0.643,0.4-1.043,0.481-1.205c0.642-1.925,1.765-3.011,3.372-3.251c1.042-0.241,2.688,0.202,4.938,1.326
					c0.963,0.479,1.688,0.883,2.168,1.202v1.928l-1.325-0.604c-0.402-0.159-0.884-0.159-1.444,0
					c-0.563,0.24-0.844,0.563-0.844,0.963v1.325l-0.12,24.929c0,2.488,0.762,3.775,2.288,3.854c1.042,0.08,1.687,0,1.927-0.242
					c0.24-0.238,0.521-0.922,0.843-2.047c0.16-0.24,0.241-0.438,0.241-0.602H482.938L482.938,156.17L482.938,156.17z
					 M467.405,153.541v-18.955c-0.241-2.078-1.598-3.837-4.072-5.279c-2.077-1.197-4.273-1.798-6.587-1.798
					c-3.594-0.079-6.389,1.559-8.383,4.919c-1.759,2.798-2.635,6.117-2.635,9.957c0,4,1.042,7.557,3.131,10.674
					c2.326,3.602,5.378,5.4,9.151,5.4C464.272,158.539,467.405,156.902,467.405,153.541z"/>
				<path fill="#9E9C93" d="M504.495,159.422v2.771l-19.148-0.121v-2.771c3.934,0,5.901-2.326,5.901-6.982l0.241-45.884v-0.602
					c-0.081-1.043-0.603-1.325-1.565-0.845l-1.325,0.604l0.121-1.807l1.926-0.964c1.928-0.965,3.412-1.364,4.457-1.205
					c2.729,0.401,4.014,2.369,3.854,5.9l-0.361,44.799C498.593,156.975,500.559,159.344,504.495,159.422z"/>
				<path fill="#9E9C93" d="M537.129,154.484l2.528,0.24c-3.694,5.621-8.672,8.432-14.934,8.432c-3.854,0-7.387-1.283-10.597-3.855
					c-4.818-3.852-7.226-8.988-7.226-15.412c0-4.254,1.244-8.146,3.731-11.682c3.613-5.137,8.389-7.707,14.332-7.707
					c4.013,0,7.626,1.283,10.839,3.853c1.926,1.608,2.891,3.175,2.891,4.696c-0.081,2.331-1.325,4.178-3.734,5.542l-2.047-2.529
					c0.722-0.803,1.084-1.686,1.084-2.649c0-1.444-0.824-2.848-2.469-4.215c-1.646-1.364-3.231-2.086-4.757-2.168
					c-3.612-0.16-6.584,1.728-8.913,5.659c-2.007,3.292-3.01,6.865-3.01,10.72c0,4.094,0.882,7.627,2.649,10.598
					c2.086,3.451,5.017,5.34,8.791,5.66C531.268,160.066,534.879,158.338,537.129,154.484z"/>
			</g>
		</g>
		<g>
			<g>
				
					<image overflow="visible" enable-background="new    " width="507" height="507" xlink:href="4F375969.png"  transform="matrix(0.2763 0 0 0.2758 22.6125 44.1558)">
				</image>
			</g>
			<path fill="#9E9C93" d="M73.202,164.602c1.391,1.393,3.213,2.088,5.03,2.088c1.822,0,3.645-0.695,5.031-2.088
				c2.782-2.779,2.782-7.285,0-10.061l-10.539-10.545c-3.53,3.529-6.905,6.904-10.065,10.063L73.202,164.602z"/>
			<path fill="#9E9C93" d="M62.659,133.932l-10.542-10.541c-2.778-2.778-7.289-2.778-10.067,0c-2.777,2.777-2.777,7.286,0,10.06
				l10.546,10.545C55.753,140.836,59.129,137.461,62.659,133.932z"/>
			<path fill="#9E9C93" d="M35.213,172.023c1.342,1.199,3.023,1.824,4.71,1.824c1.822,0,3.645-0.691,5.031-2.084l8.924-8.922
				c0.764-0.428,1.354-1.049,1.883-1.768c0.574-0.75,1.293-1.389,1.978-2.092c1.561-1.563,3.221-3.221,4.921-4.924l-10.063-10.063
				c-1.704,1.703-3.358,3.359-4.925,4.928l-1.029,1.027c-0.341,0.336-0.687,0.658-1.062,0.941c-0.715,0.529-1.342,1.121-1.765,1.885
				l-8.924,8.924c-2.681,2.678-2.75,6.949-0.261,9.742"/>
			<path fill="#9E9C93" d="M145.478,57.374c-2.178,1.058-4.833,2.323-7.758,3.904c-1.477,0.772-3.046,1.601-4.701,2.474
				c-0.87,0.392-1.528,1.03-2.074,1.805c-0.586,0.74-1.311,1.379-1.989,2.078C117.871,78.72,103.091,93.5,88.311,108.281
				c-8.818,8.815-17.62,17.615-25.652,25.651l10.065,10.064c8.034-8.035,16.83-16.836,25.648-25.653
				c14.779-14.78,29.56-29.557,40.648-40.645c0.702-0.677,1.338-1.399,2.073-1.986c0.785-0.544,1.42-1.204,1.811-2.075
				c0.875-1.652,1.701-3.228,2.473-4.696c1.579-2.928,2.848-5.582,3.906-7.763c2.105-4.354,3.176-6.979,3.176-6.979
				S149.836,55.269,145.478,57.374z"/>
			<path fill="#660E0E" d="M52.597,143.996l10.063,10.063c3.161-3.158,6.536-6.533,10.067-10.063L62.66,133.932
				C59.129,137.461,55.753,140.836,52.597,143.996z"/>
			<g>
				
					<image overflow="visible" enable-background="new    " width="381" height="414" xlink:href="4F37596B.png"  transform="matrix(0.2748 0 0 0.2745 67.7317 75.9058)">
				</image>
			</g>
			<path fill="#9E9C93" d="M120.207,179.527c41.742-14.551,40.592-65.387,42.121-77.24l-42.121-15.988l-42.125,15.988
				c1.533,11.854,0.382,62.689,42.121,77.24"/>
			<path fill="#660E0E" d="M120.203,174.414c-37.158-12.955-36.134-58.213-37.496-68.767l37.5-14.231l37.501,14.231
				c-1.363,10.554-0.337,55.812-37.501,68.767"/>
		</g>
	</g>
</g>
</svg>
