<?xml version="1.0" encoding="utf-8"?>
<!-- Generator: Adobe Illustrator 16.0.0, SVG Export Plug-In . SVG Version: 6.00 Build 0)  -->
<!DOCTYPE svg PUBLIC "-//W3C//DTD SVG 1.1//EN" "http://www.w3.org/Graphics/SVG/1.1/DTD/svg11.dtd">
<svg version="1.1" id="Layer_1" xmlns="http://www.w3.org/2000/svg" xmlns:xlink="http://www.w3.org/1999/xlink" x="0px" y="0px"
	 width="100px" height="100px" viewBox="0 0 100 100" enable-background="new 0 0 100 100" xml:space="preserve">
<g>
	<path fill="#ECE7C4" d="M88.6,57.5H11.4c-4.142,0-7.5-3.357-7.5-7.5c0-4.142,3.358-7.5,7.5-7.5h77.2c4.144,0,7.5,3.358,7.5,7.5
		C96.1,54.143,92.742,57.5,88.6,57.5z"/>
	<path fill="#ECE7C4" d="M88.6,23.991H11.4c-4.142,0-7.5-3.358-7.5-7.5c0-4.142,3.358-7.5,7.5-7.5h77.2c4.144,0,7.5,3.358,7.5,7.5
		C96.1,20.633,92.742,23.991,88.6,23.991z"/>
	<path fill="#ECE7C4" d="M88.6,91.009H11.4c-4.142,0-7.5-3.356-7.5-7.5c0-4.143,3.358-7.5,7.5-7.5h77.2c4.144,0,7.5,3.357,7.5,7.5
		C96.1,87.652,92.742,91.009,88.6,91.009z"/>
</g>
</svg>
